<svg width="354" height="349" viewBox="0 0 354 349" fill="none" xmlns="http://www.w3.org/2000/svg">
<rect x="34.1831" y="162.15" width="57.3763" height="22.4516" fill="#53E5D0"/>
<rect x="14.2258" y="319.312" width="323.054" height="22.4516" fill="#53E5D0"/>
<path d="M14.2258 129.72L175.753 21.2043L337.28 129.72V152.172H14.2258V129.72Z" fill="#53E5D0"/>
<rect x="110.269" y="162.15" width="56.129" height="22.4516" fill="#53E5D0"/>
<rect x="186.355" y="162.15" width="56.129" height="22.4516" fill="#53E5D0"/>
<rect x="34.1831" y="286.882" width="57.3763" height="22.4516" fill="#53E5D0"/>
<rect x="110.269" y="286.882" width="56.129" height="22.4516" fill="#53E5D0"/>
<rect x="186.355" y="286.882" width="56.129" height="22.4516" fill="#53E5D0"/>
<rect x="80.3333" y="182.108" width="116" height="36.172" transform="rotate(90 80.3333 182.108)" fill="#53E5D0"/>
<rect x="156.42" y="182.108" width="116" height="36.172" transform="rotate(90 156.42 182.108)" fill="#53E5D0"/>
<rect x="232.505" y="182.108" width="116" height="36.172" transform="rotate(90 232.505 182.108)" fill="#53E5D0"/>
<rect x="143.946" y="184.602" width="102.28" height="11.2258" transform="rotate(90 143.946 184.602)" fill="#A9F2E7"/>
<rect x="66.6128" y="184.602" width="102.28" height="11.2258" transform="rotate(90 66.6128 184.602)" fill="#A9F2E7"/>
<rect x="220.032" y="184.602" width="102.28" height="11.2258" transform="rotate(90 220.032 184.602)" fill="#A9F2E7"/>
<path fill-rule="evenodd" clip-rule="evenodd" d="M172.929 22.4512L14.226 129.572L14.3046 129.72H14.2258V152.172H263.858V129.72H53.1562L184.225 41.7845L172.929 22.4512Z" fill="url(#paint0_linear)"/>
<path d="M210.053 89.9028H197.58V103.623H210.053V89.9028Z" fill="#E6F1FF"/>
<path d="M180.118 132.312C211.117 132.312 236.247 107.182 236.247 76.1825C236.247 45.1833 211.117 20.0535 180.118 20.0535C149.119 20.0535 123.989 45.1833 123.989 76.1825C123.989 107.182 149.119 132.312 180.118 132.312Z" fill="#006EFA"/>
<g opacity="0.58">
<path opacity="0.19" d="M180.07 152.268C222.118 152.268 256.204 118.182 256.204 76.1342C256.204 34.0864 222.118 0 180.07 0C138.022 0 103.936 34.0864 103.936 76.1342C103.936 118.182 138.022 152.268 180.07 152.268Z" fill="#006EFA"/>
</g>
<path d="M180.118 122.333C205.607 122.333 226.269 101.671 226.269 76.1823C226.269 50.694 205.607 30.0317 180.118 30.0317C154.63 30.0317 133.968 50.694 133.968 76.1823C133.968 101.671 154.63 122.333 180.118 122.333Z" fill="white" stroke="#006EFA" stroke-width="3.99058"/>
<path d="M142.876 84.2038C142.876 59.1628 163.182 38.8562 188.223 38.8562C197.177 38.8562 205.516 41.4557 212.548 45.939C204.423 36.8971 192.644 31.1831 179.558 31.1831C155.107 31.1831 135.215 51.0753 135.215 75.5261C135.215 88.6117 140.917 100.391 149.971 108.516C145.475 101.496 142.876 93.1452 142.876 84.2038Z" fill="#E6F1FF"/>
<path d="M189.8 64.3395C191.66 63.2658 192.396 60.909 190.951 59.3378C189.198 57.4392 186.949 56.0906 184.286 55.4097V53.9171C184.286 51.7435 182.493 49.989 180.272 49.989C178.05 49.989 176.257 51.7435 176.257 53.9171V55.2919C170.864 56.6667 167.25 60.9483 167.25 66.1857C167.25 79.397 186.521 78.0353 186.521 84.9356C186.521 88.7458 184.086 90.3563 180.539 90.3563C177.354 90.3563 175.066 88.7327 173.473 86.402C172.041 84.294 169.244 83.1287 167.023 84.3987C165.511 85.2629 164.694 87.0043 165.417 88.5494C167.277 92.5691 171.078 95.8948 176.27 97.0209V98.4481C176.27 100.622 178.063 102.376 180.285 102.376C182.506 102.376 184.3 100.622 184.3 98.4481V97.1387C190.884 95.8948 195.086 91.4299 195.086 84.5166C195.086 72.1432 175.414 73.086 175.414 65.8322C175.414 63.6324 177.327 62.0219 179.817 62.0219C181.275 62.0219 182.506 62.4017 183.604 63.2396C185.41 64.6275 187.819 65.4917 189.8 64.3395Z" fill="#006EFA"/>
<path d="M294.871 91.0537L349.843 130.145C350.569 130.661 351 131.497 351 132.387V149.421C351 150.94 349.768 152.172 348.249 152.172H110.269" stroke="#006EFA" stroke-width="4.12648" stroke-linecap="round"/>
<path d="M34.1831 164.645V180.604C34.1831 182.123 35.4148 183.355 36.9341 183.355H87.5612C89.0805 183.355 90.3121 182.123 90.3121 180.604V171.505" stroke="#0A7DF4" stroke-width="4.12648" stroke-linecap="round"/>
<path d="M111.516 164.645V180.604C111.516 182.123 112.748 183.355 114.267 183.355H165.151" stroke="#0A7DF4" stroke-width="4.12648" stroke-linecap="round"/>
<path d="M187.602 164.645V180.604C187.602 182.123 188.834 183.355 190.353 183.355H241.236" stroke="#0A7DF4" stroke-width="4.12648" stroke-linecap="round"/>
<path d="M43.5375 183.355V283.507C43.5375 285.027 42.3058 286.258 40.7865 286.258H38.1809C36.6616 286.258 35.4299 287.49 35.4299 289.009V306.582C35.4299 308.102 36.6616 309.333 38.1809 309.333H87.5607C89.08 309.333 90.3116 308.102 90.3116 306.582V296.237" stroke="#006EFA" stroke-width="4.12648" stroke-linecap="round"/>
<path d="M196.957 183.355V283.507C196.957 285.027 195.725 286.258 194.206 286.258H188.85" stroke="#006EFA" stroke-width="4.12648" stroke-linecap="round"/>
<path d="M122.118 183.355V283.507C122.118 285.027 120.887 286.258 119.367 286.258H114.011" stroke="#006EFA" stroke-width="4.12648" stroke-linecap="round"/>
<path d="M231.258 183.355V283.507C231.258 285.027 232.49 286.258 234.009 286.258H239.366" stroke="#006EFA" stroke-width="4.12648" stroke-linecap="round"/>
<path d="M156.419 183.355V283.507C156.419 285.027 157.651 286.258 159.17 286.258H164.527" stroke="#006EFA" stroke-width="4.12648" stroke-linecap="round"/>
<path d="M79.0861 183.355V283.507C79.0861 285.027 80.3177 286.258 81.8371 286.258H87.1936" stroke="#006EFA" stroke-width="4.12648" stroke-linecap="round"/>
<path d="M110.269 348.816C111.408 348.816 112.332 347.892 112.332 346.753C112.332 345.613 111.408 344.689 110.269 344.689V348.816ZM163.903 318.496H8.50198V322.622H163.903V318.496ZM0.936759 326.061V341.251H5.06324V326.061H0.936759ZM8.50198 348.816H110.269V344.689H8.50198V348.816ZM0.936759 341.251C0.936759 345.429 4.32382 348.816 8.50198 348.816V344.689C6.60282 344.689 5.06324 343.15 5.06324 341.251H0.936759ZM8.50198 318.496C4.32383 318.496 0.936759 321.883 0.936759 326.061H5.06324C5.06324 324.162 6.60282 322.622 8.50198 322.622V318.496Z" fill="#006EFA"/>
<rect width="57.3763" height="22.4516" transform="matrix(-1 0 0 1 316.075 162.15)" fill="#53E5D0"/>
<rect width="57.3763" height="22.4516" transform="matrix(-1 0 0 1 316.075 286.882)" fill="#53E5D0"/>
<rect width="116" height="36.172" transform="matrix(3.95848e-08 1 1 -4.82682e-08 269.925 182.108)" fill="#53E5D0"/>
<rect width="102.28" height="11.2258" transform="matrix(3.95848e-08 1 1 -4.82682e-08 283.645 184.602)" fill="#A9F2E7"/>
<path d="M306.721 183.355V283.507C306.721 285.027 307.952 286.258 309.472 286.258H312.077C313.596 286.258 314.828 287.49 314.828 289.009V306.582C314.828 308.102 313.596 309.333 312.077 309.333H262.697C261.178 309.333 259.946 308.102 259.946 306.582V296.237" stroke="#006EFA" stroke-width="4.12648" stroke-linecap="round"/>
<path d="M271.172 183.355V283.507C271.172 285.027 269.941 286.258 268.421 286.258H263.065" stroke="#006EFA" stroke-width="4.12648"/>
<path d="M314.828 164.645V180.604C314.828 182.123 313.596 183.355 312.077 183.355H261.45C259.931 183.355 258.699 182.123 258.699 180.604V171.505" stroke="#0A7DF4" stroke-width="4.12648" stroke-linecap="round"/>
<defs>
<linearGradient id="paint0_linear" x1="57.0846" y1="101.876" x2="158.827" y2="47.9587" gradientUnits="userSpaceOnUse">
<stop stop-color="#87EDDE"/>
<stop offset="1" stop-color="#53E5D0"/>
</linearGradient>
</defs>
</svg>
